<svg width="25" height="25" viewBox="0 0 25 25" fill="none" xmlns="http://www.w3.org/2000/svg">
<g id="Group">
<path id="Vector" d="M1 21.125C1 19.6 1.6058 18.1375 2.68414 17.0591C3.76247 15.9808 5.22501 15.375 6.75 15.375H18.25C19.775 15.375 21.2375 15.9808 22.3159 17.0591C23.3942 18.1375 24 19.6 24 21.125C24 21.8875 23.6971 22.6188 23.1579 23.1579C22.6188 23.6971 21.8875 24 21.125 24H3.875C3.1125 24 2.38123 23.6971 1.84207 23.1579C1.3029 22.6188 1 21.8875 1 21.125Z" stroke="white" stroke-width="2" stroke-linejoin="round"/>
<path id="Vector_2" d="M12.5 9.625C14.8817 9.625 16.8125 7.69423 16.8125 5.3125C16.8125 2.93077 14.8817 1 12.5 1C10.1183 1 8.1875 2.93077 8.1875 5.3125C8.1875 7.69423 10.1183 9.625 12.5 9.625Z" stroke="white" stroke-width="2"/>
</g>
</svg>
