<svg width="26" height="26" viewBox="0 0 26 26" fill="none" xmlns="http://www.w3.org/2000/svg">
<g id="ant-design:message-outlined">
<path id="Vector" d="M11.7814 13C11.7814 13.3232 11.9098 13.6332 12.1384 13.8618C12.3669 14.0903 12.6769 14.2188 13.0001 14.2188C13.3234 14.2188 13.6334 14.0903 13.8619 13.8618C14.0905 13.6332 14.2189 13.3232 14.2189 13C14.2189 12.6768 14.0905 12.3668 13.8619 12.1382C13.6334 11.9097 13.3234 11.7812 13.0001 11.7812C12.6769 11.7812 12.3669 11.9097 12.1384 12.1382C11.9098 12.3668 11.7814 12.6768 11.7814 13ZM16.8595 13C16.8595 13.3232 16.9879 13.6332 17.2165 13.8618C17.445 14.0903 17.755 14.2188 18.0783 14.2188C18.4015 14.2188 18.7115 14.0903 18.9401 13.8618C19.1686 13.6332 19.297 13.3232 19.297 13C19.297 12.6768 19.1686 12.3668 18.9401 12.1382C18.7115 11.9097 18.4015 11.7812 18.0783 11.7812C17.755 11.7812 17.445 11.9097 17.2165 12.1382C16.9879 12.3668 16.8595 12.6768 16.8595 13ZM6.70327 13C6.70327 13.3232 6.83167 13.6332 7.06023 13.8618C7.28879 14.0903 7.59879 14.2188 7.92202 14.2188C8.24525 14.2188 8.55525 14.0903 8.78381 13.8618C9.01237 13.6332 9.14077 13.3232 9.14077 13C9.14077 12.6768 9.01237 12.3668 8.78381 12.1382C8.55525 11.9097 8.24525 11.7812 7.92202 11.7812C7.59879 11.7812 7.28879 11.9097 7.06023 12.1382C6.83167 12.3668 6.70327 12.6768 6.70327 13ZM23.4916 8.59219C22.9177 7.22871 22.0951 6.00488 21.0464 4.95371C20.0051 3.90862 18.769 3.07791 17.408 2.50859C16.0115 1.92207 14.5287 1.625 13.0001 1.625H12.9494C11.4107 1.63262 9.92026 1.9373 8.5187 2.53652C7.16933 3.11168 5.94476 3.94387 4.91323 4.98672C3.87475 6.03535 3.05971 7.2541 2.49604 8.6125C1.91206 10.0191 1.61753 11.5146 1.62514 13.0533C1.63376 14.8166 2.05092 16.5539 2.84389 18.1289V21.9883C2.84389 22.298 2.96695 22.5951 3.18598 22.8142C3.40502 23.0332 3.7021 23.1562 4.01186 23.1562H7.87378C9.44874 23.9492 11.1861 24.3664 12.9494 24.375H13.0027C14.5236 24.375 15.9988 24.0805 17.3876 23.5041C18.7418 22.9416 19.9733 22.1205 21.0134 21.0869C22.0621 20.0484 22.8873 18.8348 23.4636 17.4814C24.0628 16.0799 24.3675 14.5895 24.3751 13.0508C24.3828 11.5045 24.0832 10.0039 23.4916 8.59219ZM19.655 19.7133C17.8751 21.4754 15.5138 22.4453 13.0001 22.4453H12.957C11.4259 22.4377 9.90503 22.0568 8.56186 21.3408L8.34858 21.2266H4.77358V17.6516L4.65932 17.4383C3.94331 16.0951 3.56245 14.5742 3.55483 13.0432C3.54468 10.5117 4.51206 8.13516 6.28686 6.34512C8.05913 4.55508 10.4281 3.56484 12.9595 3.55469H13.0027C14.2722 3.55469 15.5037 3.80098 16.664 4.28848C17.7964 4.76328 18.8121 5.44629 19.6855 6.31973C20.5564 7.19062 21.2419 8.20879 21.7167 9.34121C22.2093 10.5143 22.4556 11.7584 22.4505 13.0432C22.4353 15.5721 21.4425 17.941 19.655 19.7133Z" fill="white"/>
</g>
</svg>
