<?xml version="1.0" standalone="no"?>
<!DOCTYPE svg PUBLIC "-//W3C//DTD SVG 20010904//EN"
 "http://www.w3.org/TR/2001/REC-SVG-20010904/DTD/svg10.dtd">
<svg version="1.0" xmlns="http://www.w3.org/2000/svg"
 width="960.000000pt" height="540.000000pt" viewBox="0 0 960.000000 540.000000"
 preserveAspectRatio="xMidYMid meet">

<g transform="translate(0.000000,540.000000) scale(0.100000,-0.100000)"
fill="#000000" stroke="none">
<path d="M368 5320 c-108 -19 -221 -98 -266 -187 -89 -177 -20 -385 159 -479
50 -27 62 -29 164 -29 100 0 115 3 167 28 203 100 266 351 132 526 -82 107
-224 163 -356 141z m-90 -217 c-19 -27 -54 -76 -79 -110 -24 -34 -47 -63 -51
-63 -19 0 -7 95 17 135 24 43 89 85 128 85 16 0 14 -7 -15 -47z m150 10 c14
-10 31 -28 39 -40 13 -20 12 -22 -35 -37 -40 -14 -54 -14 -75 -5 -54 25 -107
-45 -73 -96 16 -24 56 -35 56 -15 0 6 -7 10 -16 10 -12 0 -15 6 -10 23 3 12 6
30 6 40 0 14 10 17 70 17 39 0 70 -3 70 -6 0 -3 -30 -48 -67 -100 l-68 -95
-40 6 c-47 7 -83 31 -107 72 l-18 30 83 112 82 113 39 -5 c22 -3 50 -14 64
-24z m290 -15 c-3 -22 -9 -23 -87 -26 -86 -3 -108 5 -98 32 5 13 24 16 97 16
89 0 91 -1 88 -22z m-78 -67 c0 -23 -19 -31 -75 -31 -45 0 -61 11 -51 35 4 11
22 15 66 15 52 0 60 -2 60 -19z m-175 -113 c-10 -70 -11 -72 -50 -90 -78 -34
-79 -24 -9 72 36 50 67 90 68 90 1 0 -3 -32 -9 -72z m215 62 c12 -7 12 -13 4
-27 -9 -15 -25 -18 -95 -18 -74 0 -84 2 -87 19 -2 10 2 22 10 27 18 12 149 11
168 -1z m10 -94 c0 -16 -192 -15 -197 1 -3 9 23 12 96 11 66 -1 101 -5 101
-12z m-160 -46 c0 -5 -9 -10 -20 -10 -11 0 -20 5 -20 10 0 6 9 10 20 10 11 0
20 -4 20 -10z m50 -1 c0 -5 -9 -9 -20 -9 -11 0 -20 4 -20 8 0 4 9 8 20 9 11 1
20 -2 20 -8z m30 1 c0 -5 -4 -10 -10 -10 -5 0 -10 5 -10 10 0 6 5 10 10 10 6
0 10 -4 10 -10z m90 0 c0 -6 -17 -10 -40 -8 -22 1 -40 6 -40 10 0 4 18 8 40 8
22 0 40 -5 40 -10z m-406 -88 c2 -4 -10 -9 -29 -10 -18 -2 -36 1 -39 6 -2 4
10 9 29 10 18 2 36 -1 39 -6z m46 -2 c0 -5 -7 -10 -15 -10 -8 0 -15 5 -15 10
0 6 7 10 15 10 8 0 15 -4 15 -10z m45 -1 c-7 -11 -35 -12 -35 -1 0 4 9 8 20 9
11 1 18 -2 15 -8z m80 1 c-3 -5 -10 -10 -16 -10 -5 0 -9 5 -9 10 0 6 7 10 16
10 8 0 12 -4 9 -10z m135 -1 c0 -4 -25 -7 -55 -6 -30 1 -55 5 -55 8 0 4 25 7
55 7 30 0 55 -4 55 -9z m30 1 c0 -5 -4 -10 -10 -10 -5 0 -10 5 -10 10 0 6 5
10 10 10 6 0 10 -4 10 -10z"/>
<path d="M3588 4620 c-15 -4 -40 -17 -56 -29 -80 -57 -104 -245 -46 -367 51
-106 240 -126 318 -33 71 84 73 286 4 374 -42 54 -142 79 -220 55z m117 -97
c9 -9 21 -28 27 -42 11 -30 13 -158 3 -193 -21 -68 -91 -90 -136 -42 -22 24
-24 33 -24 134 0 101 2 110 24 134 29 30 81 35 106 9z"/>
<path d="M4034 4612 c-77 -37 -114 -111 -114 -232 0 -169 82 -260 222 -247 71
6 117 35 150 92 20 35 23 53 23 155 0 102 -3 120 -23 155 -34 60 -79 86 -154
92 -48 3 -73 -1 -104 -15z m141 -96 c41 -41 48 -205 11 -261 -32 -49 -109 -44
-135 9 -34 72 -21 231 22 261 32 22 74 18 102 -9z"/>
<path d="M4463 4621 c-48 -8 -73 -26 -73 -51 0 -35 23 -41 131 -34 l104 6 -57
-59 c-79 -80 -76 -102 12 -122 44 -10 90 -48 90 -75 0 -7 -9 -25 -21 -40 -28
-36 -96 -36 -165 -1 -27 14 -56 25 -65 25 -25 0 -41 -25 -37 -57 2 -22 13 -33
53 -53 68 -34 211 -36 265 -4 108 63 106 203 -5 259 -22 11 -42 21 -44 23 -3
1 21 28 52 60 61 62 71 94 36 112 -25 14 -218 22 -276 11z"/>
<path d="M4946 4616 c-78 -29 -112 -69 -95 -113 12 -32 54 -29 108 7 71 49
141 33 141 -31 -1 -33 -18 -52 -145 -154 -60 -49 -113 -94 -117 -100 -16 -22
-7 -55 19 -72 23 -15 50 -18 178 -18 162 0 195 8 195 48 0 41 -16 46 -129 41
-88 -5 -103 -3 -91 8 9 7 48 39 88 71 90 74 112 108 112 177 0 96 -48 140
-159 147 -42 2 -80 -2 -105 -11z"/>
<path d="M5418 4620 c-15 -4 -40 -17 -56 -29 -80 -57 -104 -245 -46 -367 51
-106 240 -126 318 -33 71 84 73 286 4 374 -42 54 -142 79 -220 55z m117 -97
c9 -9 21 -28 27 -42 11 -30 13 -158 3 -193 -21 -68 -91 -90 -136 -42 -22 24
-24 33 -24 134 0 101 2 110 24 134 29 30 81 35 106 9z"/>
<path d="M5855 4626 c-5 -3 -27 -7 -47 -11 -40 -6 -54 -29 -43 -65 6 -19 12
-20 118 -14 l112 6 -58 -58 c-45 -44 -57 -63 -55 -82 2 -22 11 -28 51 -38 73
-18 97 -38 97 -79 0 -68 -78 -85 -182 -38 -62 28 -79 26 -102 -10 -16 -25 2
-48 60 -77 66 -34 210 -36 263 -5 55 32 75 68 75 130 0 67 -22 101 -85 133
l-45 22 58 59 c32 32 58 65 58 74 0 34 -45 49 -158 53 -59 2 -111 2 -117 0z"/>
<path d="M2660 3792 c-19 -16 -21 -22 -11 -40 6 -12 19 -22 27 -22 9 0 25 -11
36 -25 18 -23 26 -25 97 -25 79 0 101 9 101 42 0 25 -27 36 -71 31 -34 -5 -40
-3 -48 19 -5 14 -17 28 -26 32 -32 12 -83 6 -105 -12z"/>
<path d="M3048 3799 c-13 -7 -18 -23 -18 -52 0 -49 13 -67 50 -67 37 0 50 18
50 67 0 55 -37 79 -82 52z"/>
<path d="M6020 3792 c-19 -16 -21 -22 -11 -40 6 -12 19 -22 27 -22 9 0 25 -11
36 -25 18 -23 26 -25 97 -25 79 0 101 9 101 42 0 25 -27 36 -71 31 -34 -5 -40
-3 -48 19 -5 14 -17 28 -26 32 -32 12 -83 6 -105 -12z"/>
<path d="M6912 3798 c-13 -13 -16 -47 -4 -64 15 -23 53 -34 121 -34 82 0 121
12 121 38 0 33 -20 42 -81 35 -51 -5 -58 -3 -68 16 -13 24 -68 30 -89 9z"/>
<path d="M5535 3775 c-34 -33 -34 -81 0 -97 32 -15 75 3 75 31 0 12 8 21 21
23 27 4 44 30 36 52 -5 12 -19 16 -57 16 -41 0 -56 -5 -75 -25z"/>
<path d="M1830 3770 c-8 -15 -21 -20 -55 -20 -24 0 -55 -4 -69 -10 -28 -10
-35 -41 -13 -57 14 -12 206 -11 225 0 15 10 16 61 2 88 -15 27 -75 26 -90 -1z"/>
<path d="M3902 3778 c-16 -16 -15 -50 2 -73 11 -15 30 -20 85 -23 94 -6 138 3
146 29 12 36 -11 49 -75 42 -52 -5 -59 -4 -69 16 -13 24 -68 30 -89 9z"/>
<path d="M4626 3673 c-4 -4 -41 -10 -82 -14 -82 -8 -104 -19 -104 -55 0 -35
30 -47 78 -30 34 12 43 12 59 1 16 -13 13 -14 -29 -15 -51 0 -98 -14 -110 -33
-13 -21 -9 -74 7 -87 23 -19 97 -24 119 -7 24 17 15 47 -14 47 -23 0 -27 15
-5 24 26 10 45 -5 45 -35 0 -50 67 -67 96 -24 12 19 15 40 12 88 -3 34 -2 71
2 82 13 34 -6 65 -38 65 -16 0 -32 -3 -36 -7z"/>
<path d="M5856 3673 c-4 -4 -41 -10 -83 -14 -88 -9 -123 -31 -104 -67 15 -28
33 -32 77 -17 30 10 44 10 59 2 17 -10 11 -12 -40 -18 -73 -7 -103 -22 -111
-54 -14 -56 60 -102 125 -79 33 12 36 48 4 52 -26 4 -30 17 -8 26 26 10 45 -5
45 -35 0 -37 37 -58 74 -41 22 10 24 17 28 119 3 65 1 113 -5 121 -10 13 -49
16 -61 5z"/>
<path d="M7016 3673 c-4 -4 -41 -10 -83 -14 -88 -9 -123 -31 -104 -67 15 -28
33 -32 77 -17 30 10 44 10 59 2 17 -10 11 -12 -40 -18 -73 -7 -103 -22 -111
-54 -14 -56 60 -102 125 -79 33 12 36 48 4 52 -26 4 -30 17 -8 26 26 10 45 -5
45 -35 0 -37 37 -58 74 -41 22 10 24 17 28 119 3 65 1 113 -5 121 -10 13 -49
16 -61 5z"/>
<path d="M1558 3649 c-15 -8 -18 -25 -18 -109 0 -91 2 -100 21 -110 30 -16 68
-4 79 26 14 36 12 144 -3 174 -14 27 -51 36 -79 19z"/>
<path d="M1730 3643 c-29 -15 -36 -24 -38 -54 -4 -44 20 -68 74 -75 62 -9 72
-14 54 -24 -9 -5 -36 -4 -63 2 -59 12 -79 5 -75 -24 7 -49 175 -63 229 -19 49
39 16 104 -59 116 -61 11 -70 15 -51 25 9 5 33 4 58 -2 34 -9 45 -8 57 4 17
17 10 44 -14 53 -9 3 -44 8 -77 11 -46 4 -68 1 -95 -13z"/>
<path d="M2000 3647 c-27 -14 -40 -68 -21 -90 6 -8 6 -18 1 -27 -19 -30 -11
-69 17 -87 39 -26 168 -25 207 0 39 26 59 78 50 134 -11 74 -60 106 -98 64
-14 -15 -16 -29 -11 -64 4 -25 4 -54 1 -65 -7 -21 -39 -34 -62 -25 -19 7 -7
23 17 23 11 0 22 7 25 15 8 20 -13 45 -37 45 -30 0 -22 18 9 22 39 4 44 44 7
58 -35 13 -75 12 -105 -3z"/>
<path d="M2316 3647 c-24 -18 -39 -100 -26 -147 18 -67 47 -80 160 -70 14 1
36 -1 50 -5 46 -12 64 14 68 97 6 112 -18 152 -77 132 -24 -9 -26 -15 -31 -79
-5 -70 -5 -70 -35 -70 l-30 0 0 61 c0 84 -31 116 -79 81z"/>
<path d="M2673 3652 c-94 -28 -80 -125 20 -140 56 -8 64 -29 9 -23 -82 9 -97
7 -100 -15 -4 -30 46 -49 130 -49 52 0 73 5 95 21 61 45 30 108 -59 120 -29 4
-47 11 -45 18 2 6 18 9 38 7 76 -9 84 -8 84 19 0 20 -8 28 -35 37 -38 13 -102
15 -137 5z"/>
<path d="M2953 3653 c-26 -5 -63 -48 -63 -73 0 -34 33 -61 83 -68 26 -4 47
-11 47 -17 -1 -11 -14 -11 -82 0 -41 6 -49 5 -55 -10 -22 -60 177 -88 236 -34
48 45 13 104 -69 115 -31 4 -49 11 -47 18 2 6 18 9 38 7 76 -9 84 -8 84 19 0
20 -8 28 -35 37 -35 12 -94 14 -137 6z"/>
<path d="M3220 3650 c-55 -13 -77 -59 -38 -84 12 -7 30 -6 67 6 48 15 52 15
73 -1 16 -14 19 -24 14 -45 -7 -28 -8 -28 -66 -21 -52 6 -60 5 -69 -13 -8 -16
-7 -25 8 -44 17 -20 28 -23 96 -23 74 0 78 1 106 33 37 41 41 114 9 155 -33
42 -115 57 -200 37z"/>
<path d="M3498 3649 c-25 -14 -26 -189 -2 -213 18 -19 38 -20 65 -5 14 7 29 7
54 -2 50 -18 110 2 131 43 33 64 3 188 -46 188 -39 0 -55 -26 -55 -92 0 -61
-1 -63 -25 -63 -23 0 -25 4 -31 62 -3 34 -12 69 -19 78 -14 17 -47 19 -72 4z"/>
<path d="M3864 3646 c-17 -8 -41 -27 -53 -42 -19 -24 -22 -38 -19 -86 6 -84
45 -119 93 -84 17 12 19 24 17 74 -3 51 0 62 16 71 14 7 24 7 37 -3 15 -11 17
-22 12 -65 -5 -43 -3 -55 13 -71 26 -26 52 -25 76 1 27 30 27 138 -1 169 -42
47 -128 63 -191 36z"/>
<path d="M4135 3640 c-20 -22 -30 -93 -21 -145 12 -61 87 -92 151 -63 19 9 28
9 37 0 17 -17 54 -15 72 4 12 12 16 37 16 104 0 97 -11 120 -55 120 -35 0 -55
-36 -55 -97 0 -41 -4 -54 -19 -62 -29 -16 -42 8 -40 74 2 46 -2 61 -16 71 -26
19 -49 17 -70 -6z"/>
<path d="M4803 3653 c-26 -5 -63 -48 -63 -73 0 -34 33 -61 83 -68 26 -4 47
-11 47 -17 -1 -11 -14 -11 -82 0 -41 6 -49 5 -55 -10 -22 -60 177 -88 236 -34
48 45 13 104 -69 115 -31 4 -49 11 -47 18 2 6 18 9 38 7 76 -9 84 -8 84 19 0
20 -8 28 -35 37 -35 12 -94 14 -137 6z"/>
<path d="M5070 3642 c-36 -18 -47 -43 -36 -86 7 -27 44 -46 91 -46 35 0 55
-14 32 -23 -6 -2 -38 0 -70 6 -48 9 -60 8 -68 -4 -23 -36 30 -64 126 -64 90 0
125 19 125 70 0 41 -24 61 -88 71 -42 7 -60 18 -44 28 4 2 29 0 56 -6 40 -8
51 -7 64 5 47 48 -109 89 -188 49z"/>
<path d="M5393 3649 c-51 -15 -83 -61 -83 -120 0 -74 22 -109 68 -109 15 0 29
11 43 35 12 19 29 35 39 35 23 0 44 26 36 45 -8 22 -36 30 -57 16 -16 -9 -19
-8 -19 4 0 30 70 39 87 11 4 -6 6 -36 5 -68 -2 -49 0 -59 19 -68 52 -28 89 16
89 106 0 95 -107 148 -227 113z"/>
<path d="M6033 3652 c-94 -28 -80 -125 20 -140 56 -8 64 -29 9 -23 -82 9 -97
7 -100 -15 -4 -30 46 -49 130 -49 52 0 73 5 95 21 61 45 30 108 -59 120 -29 4
-47 11 -45 18 2 6 18 9 38 7 76 -9 84 -8 84 19 0 20 -8 28 -35 37 -38 13 -102
15 -137 5z"/>
<path d="M6283 3653 c-51 -10 -60 -76 -11 -81 15 -2 35 1 45 6 34 18 43 4 43
-68 0 -60 3 -71 21 -80 68 -37 110 50 78 163 -8 30 -18 42 -44 53 -33 13 -85
16 -132 7z"/>
<path d="M6626 3647 c-25 -19 -14 -50 24 -64 26 -10 30 -16 30 -47 0 -29 -4
-36 -19 -36 -18 0 -51 60 -51 94 0 7 -8 20 -18 29 -44 40 -99 3 -89 -59 10
-59 49 -109 101 -129 82 -32 156 -4 177 65 15 51 -1 113 -36 136 -35 23 -96
29 -119 11z"/>
<path d="M7246 3647 c-25 -19 -14 -50 24 -64 26 -10 30 -16 30 -47 0 -29 -4
-36 -19 -36 -18 0 -51 60 -51 94 0 7 -8 20 -18 29 -44 40 -99 3 -89 -59 10
-59 49 -109 101 -129 82 -32 156 -4 177 65 15 51 -1 113 -36 136 -35 23 -96
29 -119 11z"/>
<path d="M7523 3649 c-51 -15 -83 -61 -83 -120 0 -74 22 -109 68 -109 15 0 29
11 43 35 12 19 29 35 39 35 23 0 44 26 36 45 -8 22 -36 30 -57 16 -16 -9 -19
-8 -19 4 0 30 70 39 87 11 4 -6 6 -36 5 -68 -2 -49 0 -59 19 -68 52 -28 89 16
89 106 0 95 -107 148 -227 113z"/>
<path d="M7807 3642 c-26 -28 -24 -182 1 -205 21 -19 53 -22 69 -6 8 8 20 8
45 -1 47 -17 102 -6 128 27 29 37 29 139 -1 177 -24 30 -50 33 -74 9 -14 -13
-16 -28 -11 -69 7 -62 -11 -92 -45 -74 -15 9 -19 22 -19 70 0 64 -15 90 -54
90 -13 0 -30 -8 -39 -18z"/>
<path d="M2646 3384 c-23 -23 -19 -61 9 -89 20 -21 34 -25 85 -25 51 0 65 4
85 25 28 28 32 66 9 89 -30 31 -84 9 -84 -35 0 -29 -17 -23 -25 8 -11 44 -49
57 -79 27z"/>
<path d="M4103 2902 c-12 -4 -45 -33 -73 -64 -62 -69 -60 -81 13 -138 l52 -40
18 25 c28 37 82 48 151 30 85 -22 126 -47 180 -110 26 -31 49 -55 51 -53 1 2
-7 62 -19 133 l-21 130 -70 47 -70 47 -95 -1 c-52 0 -105 -3 -117 -6z"/>
<path d="M6170 2844 l-106 -55 -23 -112 -23 -112 22 -125 c11 -69 22 -129 23
-134 2 -5 11 4 21 18 16 25 16 29 2 45 -13 14 -15 30 -10 72 5 44 3 57 -10 68
-22 19 -20 63 4 89 32 34 43 28 37 -19 -5 -36 -3 -40 15 -37 14 2 26 19 40 56
17 45 23 52 46 52 15 0 47 9 71 20 24 11 47 20 52 20 5 0 18 -19 30 -42 12
-23 43 -65 71 -94 l49 -52 -15 -37 -16 -37 28 18 c117 76 109 62 88 142 -10
35 -13 78 -9 120 l5 67 -64 52 c-65 51 -65 51 -112 41 -40 -8 -51 -7 -79 11
l-32 20 -105 -55z"/>
<path d="M4765 2850 c-33 -11 -72 -20 -86 -20 -30 0 -85 -38 -111 -77 -10 -16
-25 -49 -34 -75 -14 -43 -14 -49 2 -80 42 -83 122 -154 146 -130 14 14 1 45
-16 39 -9 -4 -12 0 -9 13 3 12 12 16 26 13 l22 -4 -21 16 c-15 11 -20 23 -17
40 l5 24 36 -20 c23 -12 56 -19 89 -19 51 0 53 1 73 40 21 41 40 53 40 25 0
-9 -7 -29 -15 -46 -13 -23 -14 -37 -5 -69 12 -43 58 -102 66 -84 12 27 32 46
42 40 17 -10 15 -53 -5 -82 -22 -34 -29 -104 -10 -104 19 0 137 44 188 70 54
28 62 49 57 149 -3 73 -9 95 -37 148 -92 172 -260 248 -426 193z"/>
<path d="M7062 2726 c-64 -21 -151 -85 -177 -131 -60 -106 -75 -223 -75 -605
0 -304 7 -356 60 -483 49 -118 53 -116 84 35 18 87 24 134 17 136 -6 2 -9 13
-6 25 3 12 9 75 14 139 11 134 25 169 79 197 29 16 33 20 15 21 -63 1 -171
223 -118 244 21 8 19 26 -4 26 -14 0 -21 12 -30 57 -6 31 -8 59 -5 62 15 15
106 1 150 -23 48 -27 134 -56 166 -56 13 0 20 10 25 30 6 33 23 39 43 15 8
-10 10 -35 5 -83 -6 -63 -4 -74 20 -122 15 -30 30 -49 35 -44 5 5 20 53 34
108 35 134 35 233 0 304 -61 122 -209 188 -332 148z"/>
<path d="M2605 2657 c-46 -25 -61 -39 -67 -62 -4 -17 -23 -46 -43 -65 -32 -31
-35 -39 -35 -90 0 -74 44 -164 107 -220 25 -22 48 -38 50 -36 2 2 -2 19 -10
37 -21 50 -47 134 -47 152 0 23 42 117 52 117 25 0 177 -73 171 -83 -3 -6 -1
-7 5 -3 15 9 44 -7 93 -51 44 -40 48 -64 24 -132 -13 -37 -12 -44 3 -71 15
-26 23 -30 58 -30 48 0 54 -10 54 -101 0 -40 4 -58 14 -62 10 -4 17 -29 22
-76 l6 -70 112 -74 c61 -40 126 -82 144 -93 19 -10 43 -35 53 -54 l20 -35 -6
95 c-13 202 -33 255 -142 373 -36 38 -50 47 -95 54 l-53 8 -13 55 c-32 130
-86 290 -119 352 -97 186 -217 241 -358 165z"/>
<path d="M4228 2643 c12 -2 32 -2 45 0 12 2 2 4 -23 4 -25 0 -35 -2 -22 -4z"/>
<path d="M4383 2621 c15 -5 12 -9 -17 -19 -26 -10 -41 -10 -55 -3 -25 14 -128
14 -136 1 -3 -5 -31 -10 -61 -10 -30 0 -54 -4 -54 -8 0 -5 27 -6 59 -4 53 4
60 2 66 -17 7 -24 36 -34 91 -29 32 2 40 7 42 26 2 14 10 22 22 22 12 0 20 -8
22 -22 2 -18 10 -23 33 -23 24 0 31 5 33 23 2 13 0 31 -4 40 -4 9 -6 20 -6 25
1 4 -10 7 -25 6 -22 0 -24 -2 -10 -8z m-140 -38 c-18 -7 -16 -33 2 -33 8 0 15
9 15 20 0 15 7 20 26 20 21 0 25 -4 22 -22 -2 -19 -10 -24 -48 -26 -33 -3 -47
1 -57 14 -20 27 -16 34 20 33 17 0 26 -3 20 -6z m177 -18 c0 -19 -5 -25 -22
-25 -21 0 -21 1 -3 13 12 10 14 16 7 21 -7 4 -16 4 -22 1 -5 -3 -10 -1 -10 4
0 6 11 11 25 11 20 0 25 -5 25 -25z"/>
<path d="M6280 2590 c8 -5 26 -10 40 -10 20 0 22 2 10 10 -8 5 -26 10 -40 10
-20 0 -22 -2 -10 -10z"/>
<path d="M4076 2527 c-19 -14 -19 -20 -8 -103 6 -48 17 -93 24 -100 18 -16
184 -74 214 -74 53 0 84 36 103 119 12 54 -5 73 -57 65 -22 -3 -54 1 -80 10
-42 15 -46 15 -100 -8 -31 -14 -58 -21 -60 -17 -1 3 -5 32 -10 64 -7 55 -8 57
-26 44z m257 -112 c40 1 45 -9 21 -43 -22 -31 -57 -28 -88 9 -34 39 -33 51 2
42 15 -5 44 -8 65 -8z"/>
<path d="M2255 2520 c-19 -7 -19 -8 -2 -15 19 -8 31 -2 26 13 -2 5 -13 6 -24
2z"/>
<path d="M4750 2523 c0 -5 21 -8 46 -9 27 -1 40 2 32 7 -16 11 -78 12 -78 2z"/>
<path d="M6273 2515 c6 -17 37 -18 37 -1 0 9 -8 14 -20 13 -11 -1 -19 -6 -17
-12z"/>
<path d="M6420 2520 c0 -6 7 -10 15 -10 8 0 15 2 15 4 0 2 -7 6 -15 10 -8 3
-15 1 -15 -4z"/>
<path d="M4765 2468 c2 -26 23 -36 31 -14 3 8 13 13 22 10 13 -5 13 -2 -2 10
-29 23 -53 20 -51 -6z"/>
<path d="M2385 2469 c-10 -15 3 -25 16 -12 7 7 7 13 1 17 -6 3 -14 1 -17 -5z"/>
<path d="M6395 2471 c-3 -5 -1 -12 5 -16 12 -7 30 2 30 16 0 12 -27 12 -35 0z"/>
<path d="M2825 2361 c-6 -5 -21 -11 -35 -14 l-25 -4 26 -2 c15 0 32 6 39 14
14 16 10 21 -5 6z"/>
<path d="M7063 2340 c-2 -23 15 -27 23 -5 4 8 11 12 17 8 6 -3 7 -1 3 5 -12
20 -42 14 -43 -8z"/>
<path d="M2650 2304 c-24 -9 -29 -13 -14 -13 11 -1 29 6 40 14 22 17 20 17
-26 -1z"/>
<path d="M5842 2242 c-109 -35 -218 -171 -224 -281 l-3 -45 95 -37 c52 -21 99
-39 103 -41 11 -5 -19 -204 -41 -268 l-19 -55 76 -97 c42 -53 79 -100 83 -103
3 -4 -2 32 -13 80 -30 132 -42 125 219 125 l217 0 35 105 34 105 78 0 78 0 0
73 c-1 176 -72 309 -180 335 -24 6 -44 10 -45 9 0 -1 -7 -15 -16 -32 -54 -97
-203 -101 -264 -8 -10 14 -20 49 -24 76 l-6 50 -50 13 c-63 17 -69 16 -133 -4z"/>
<path d="M3755 2166 c-107 -109 -137 -245 -89 -398 5 -16 -2 -18 -44 -18 -34
0 -59 -7 -82 -23 -66 -44 -67 -50 -80 -392 -6 -170 -13 -366 -17 -434 l-6
-123 26 26 c31 31 62 28 114 -10 38 -29 43 -29 43 -5 0 11 9 60 21 111 l21 91
84 -2 c47 -1 87 -6 90 -11 3 -5 -6 -25 -21 -44 -15 -19 -48 -88 -75 -153 -26
-65 -52 -126 -58 -136 -7 -13 -5 -37 8 -84 10 -36 24 -94 31 -129 l12 -62 96
101 c53 56 123 142 156 192 58 88 63 92 190 173 117 75 132 88 152 131 26 55
29 122 10 179 -12 34 -11 63 9 224 13 102 26 195 29 208 5 22 5 22 -114 22
l-120 0 -67 -130 c-89 -174 -78 -163 -141 -144 l-52 15 -97 186 c-76 145 -93
187 -83 194 18 11 198 69 214 69 9 0 21 -35 35 -97 12 -54 25 -101 29 -105 3
-4 34 39 68 97 l63 104 -12 55 c-17 86 -17 86 184 86 152 0 169 2 174 18 21
61 60 125 89 145 41 28 36 40 -37 97 -47 38 -53 40 -121 40 -43 0 -67 -4 -61
-9 5 -5 16 -11 25 -13 24 -5 -95 -184 -120 -181 -63 8 -139 50 -204 114 -39
37 -66 72 -63 78 5 8 -16 11 -70 11 l-76 0 -63 -64z"/>
<path d="M7110 2070 c-13 -9 -13 -10 0 -10 8 0 22 5 30 10 13 9 13 10 0 10 -8
0 -22 -5 -30 -10z"/>
<path d="M2625 1998 c-34 -30 -59 -64 -83 -117 -31 -69 -34 -81 -30 -145 3
-39 12 -88 21 -109 15 -34 18 -37 38 -27 14 8 56 10 125 6 103 -5 154 -20 171
-50 6 -10 207 -86 229 -86 2 0 4 13 4 29 0 15 9 40 20 54 24 30 25 43 6 54 -8
4 -60 52 -115 106 -80 76 -108 97 -130 97 -28 0 -29 2 -36 65 l-7 65 -34 0
c-18 0 -51 7 -73 16 -43 17 -80 59 -58 67 6 2 9 7 6 11 -3 3 -28 -13 -54 -36z"/>
<path d="M5372 1682 c2 -4 39 -54 83 -110 86 -112 89 -113 96 -17 l4 48 -65
33 c-73 38 -123 57 -118 46z"/>
<path d="M7106 1471 c-14 -44 -26 -83 -26 -86 0 -7 180 88 180 95 0 4 -93 57
-120 68 -4 1 -19 -33 -34 -77z"/>
<path d="M4606 1454 c-17 -54 -18 -55 -37 -38 -19 17 -21 16 -71 -34 -51 -51
-52 -51 -33 -72 22 -24 23 -24 101 26 32 21 67 37 77 36 11 -2 17 3 17 17 0
30 -23 121 -30 121 -3 0 -14 -25 -24 -56z"/>
<path d="M5130 1409 c-23 -8 -27 -19 -49 -137 -46 -247 -90 -526 -85 -534 3
-4 14 -8 24 -8 15 0 20 10 25 44 7 42 9 45 49 55 69 17 121 62 135 114 6 25
11 61 11 79 0 69 -61 370 -79 389 -3 4 -17 3 -31 -2z"/>
<path d="M2940 1306 c22 -92 23 -93 59 -98 29 -4 30 -3 45 58 23 90 23 91 -31
99 -27 3 -58 9 -69 12 l-22 5 18 -76z"/>
<path d="M5675 1294 c43 -59 269 -344 298 -376 14 -15 23 -28 22 -30 -2 -2 94
7 213 19 119 12 286 27 371 33 85 7 162 14 170 15 9 2 27 4 41 4 l25 1 -30 24
c-81 66 -173 69 -500 17 -104 -16 -218 -33 -253 -36 -69 -8 -68 -11 -31 64 12
25 14 37 6 38 -76 12 -88 16 -98 35 -8 15 -8 22 0 28 7 4 -22 30 -71 65 -46
32 -94 68 -108 80 -14 13 -38 31 -55 41 l-29 19 29 -41z"/>
<path d="M4655 1224 c-75 -45 -70 -40 -54 -61 7 -10 -1 -5 -19 11 -17 16 -33
28 -35 25 -7 -8 -27 -149 -27 -190 0 -56 35 -126 74 -150 17 -11 50 -25 74
-31 32 -9 42 -17 42 -33 0 -44 12 -65 36 -65 32 0 31 13 -7 213 -17 89 -33
177 -36 195 l-6 34 -24 -26 c-13 -14 -27 -26 -32 -26 -23 0 -14 16 33 58 59
55 66 63 60 74 -8 13 -15 10 -79 -28z"/>
<path d="M7793 1245 c-7 -12 -69 -15 -393 -17 -367 -3 -386 -4 -412 -23 -15
-11 -34 -37 -43 -58 -27 -68 10 -146 78 -162 15 -4 27 -9 27 -11 0 -2 -14 -17
-31 -32 -59 -53 -47 -152 23 -185 29 -14 82 -14 468 -6 239 5 459 12 488 15
l52 5 0 54 c0 45 -3 55 -20 60 -17 5 -20 15 -20 61 0 53 -1 55 -30 61 -52 10
-33 23 35 23 l65 0 0 31 c0 41 -28 148 -46 177 -14 21 -21 22 -124 22 -85 0
-111 -3 -117 -15z"/>
<path d="M4874 1133 l-31 -4 -7 -141 c-3 -78 -9 -152 -12 -165 -6 -22 -4 -23
55 -23 71 0 66 -12 51 138 -6 56 -11 124 -12 151 -2 28 -5 50 -8 49 -3 0 -19
-3 -36 -5z"/>
<path d="M1195 910 c-23 -26 -22 -86 3 -120 29 -38 71 -58 132 -62 63 -3 57
-19 45 125 l-7 77 -77 0 c-65 0 -81 -3 -96 -20z"/>
<path d="M1566 838 c-4 -46 -9 -91 -12 -100 -4 -14 1 -18 23 -18 15 1 39 7 53
15 l25 14 -32 1 c-31 0 -32 1 -21 30 10 31 8 80 -6 112 -7 15 -4 16 26 8 30
-9 31 -8 14 5 -11 8 -30 15 -42 15 -20 0 -22 -6 -28 -82z"/>
<path d="M1428 679 c-10 -5 -18 -14 -18 -20 0 -5 -18 -46 -40 -91 -22 -44 -37
-84 -35 -89 18 -28 201 -46 225 -23 9 9 8 33 0 95 -11 72 -17 88 -42 112 -30
28 -61 34 -90 16z"/>
</g>
</svg>
