<svg width="38" height="38" viewBox="0 0 38 38" fill="none" xmlns="http://www.w3.org/2000/svg">
<g id="icon-park-outline:eyes">
<g id="Group">
<path id="Vector" d="M19 32.4587C26.87 32.4587 33.25 25.8704 33.25 21.3753C33.25 16.8802 26.87 10.292 19 10.292C11.13 10.292 4.75 16.885 4.75 21.3753C4.75 25.8657 11.13 32.4587 19 32.4587Z" stroke="white" stroke-width="4" stroke-linejoin="round"/>
<path id="Vector_2" d="M19 26.125C20.2598 26.125 21.468 25.6246 22.3588 24.7338C23.2496 23.843 23.75 22.6348 23.75 21.375C23.75 20.1152 23.2496 18.907 22.3588 18.0162C21.468 17.1254 20.2598 16.625 19 16.625C17.7402 16.625 16.532 17.1254 15.6412 18.0162C14.7504 18.907 14.25 20.1152 14.25 21.375C14.25 22.6348 14.7504 23.843 15.6412 24.7338C16.532 25.6246 17.7402 26.125 19 26.125Z" stroke="white" stroke-width="4" stroke-linejoin="round"/>
<path id="Vector_3" d="M10.5005 8.91924L12.5541 11.7851M28.2029 9.27074L26.1486 12.1366M19.0069 5.54199V10.292" stroke="white" stroke-width="4" stroke-linecap="round"/>
</g>
</g>
</svg>
